<svg viewBox="0 0 200 200" xmlns="http://www.w3.org/2000/svg">
  <!-- Fondo circular -->
  <circle cx="100" cy="100" r="95" fill="#003366" stroke="#CE1126" stroke-width="4"/>
  
  <!-- Documento/Papeleta -->
  <rect x="55" y="40" width="90" height="110" rx="8" fill="#ffffff" stroke="#CE1126" stroke-width="3"/>
  
  <!-- Líneas del documento (representando contenido) -->
  <line x1="70" y1="60" x2="130" y2="60" stroke="#003366" stroke-width="2" stroke-linecap="round"/>
  <line x1="70" y1="75" x2="130" y2="75" stroke="#003366" stroke-width="2" stroke-linecap="round"/>
  <line x1="70" y1="90" x2="130" y2="90" stroke="#003366" stroke-width="2" stroke-linecap="round"/>
  <line x1="70" y1="105" x2="110" y2="105" stroke="#003366" stroke-width="2" stroke-linecap="round"/>
  
  <!-- Gráfico de barras mini (representando insights/datos) -->
  <rect x="68" y="125" width="8" height="18" fill="#CE1126" rx="1"/>
  <rect x="82" y="120" width="8" height="23" fill="#CE1126" rx="1"/>
  <rect x="96" y="115" width="8" height="28" fill="#CE1126" rx="1"/>
  <rect x="110" y="122" width="8" height="21" fill="#CE1126" rx="1"/>
  
  <!-- Estrella pequeña de decoración (opcional, representa excelencia) -->
  <g transform="translate(150, 55)">
    <polygon points="0,-6 1.8,-1.8 6,-1.8 2.4,1.2 4.2,6 0,2.4 -4.2,6 -2.4,1.2 -6,-1.8 -1.8,-1.8" fill="#CE1126"/>
  </g>
</svg>
